<svg id="Capa_1" data-name="Capa 1" xmlns="http://www.w3.org/2000/svg" viewBox="0 0 143.63 18.14"><defs><style>.cls-1{fill:#fff;}.cls-2{fill:#af9a7d;}.cls-3,.cls-4{fill:none;}.cls-10,.cls-11,.cls-12,.cls-13,.cls-3{stroke:#af9a7d;}.cls-10,.cls-11,.cls-12,.cls-13,.cls-3,.cls-4{stroke-miterlimit:10;}.cls-4{stroke:#fff;stroke-width:5px;}.cls-5{font-size:12px;font-family:MyriadPro-Regular, Myriad Pro;}.cls-6{letter-spacing:-0.07em;}.cls-7{letter-spacing:0em;}.cls-8{letter-spacing:0.01em;}.cls-9{letter-spacing:-0.01em;}.cls-11{letter-spacing:-0.01em;}.cls-12{letter-spacing:0.02em;}.cls-13{letter-spacing:0em;}</style></defs><title>logo</title><polygon class="cls-1" points="0.75 7.43 9.83 0.67 18.77 10.02 9.7 16.78 0.75 7.43"/><path class="cls-2" d="M13.09,2.33,21.34,11l-8.26,6.16L4.82,8.49l8.27-6.16M13.2,1,3.32,8.36,13,18.44l9.89-7.36L13.2,1Z" transform="translate(-3.32 -1)"/><line class="cls-3" x1="1.07" y1="7.21" x2="13.43" y2="14.1"/><line class="cls-4" x1="11.32" y1="9.08" x2="23.68" y2="15.96"/><line class="cls-4" x1="1.3" y1="3.26" x2="6.24" y2="5.53"/><line class="cls-3" x1="5.28" y1="12.4" x2="14.62" y2="5.44"/><text class="cls-5" transform="translate(22.69 12.75)"><tspan class="cls-6">T</tspan><tspan class="cls-7" x="5.06" y="0">A</tspan><tspan class="cls-8" x="12.41" y="0">R</tspan><tspan class="cls-6" x="18.97" y="0">T</tspan><tspan class="cls-9" x="24.04" y="0">A</tspan><tspan x="31.2" y="0">GAL </tspan><tspan class="cls-10" x="54.5" y="0">HOSPE</tspan><tspan class="cls-11" x="88.8" y="0">D</tspan><tspan class="cls-12" x="96.62" y="0">A</tspan><tspan class="cls-13" x="104.19" y="0">JES</tspan></text></svg>